<svg xmlns="http://www.w3.org/2000/svg" viewBox="0 0 100 100" width="512" height="512">
  <defs>
    <linearGradient id="g" x1="0" y1="0" x2="1" y2="1">
      <stop offset="0" stop-color="#14a0a0"/>
      <stop offset="1" stop-color="#0a6b6b"/>
    </linearGradient>
  </defs>
  <rect width="100" height="100" rx="24" fill="url(#g)"/>
  <path d="M50 22c-4 0-7 3-7 7 0 2 1 4 3 5l-13 30c-1 3 1 6 4 6h26c3 0 5-3 4-6L58 34c2-1 3-3 3-5 0-4-3-7-7-7z" fill="#fffaf3" opacity="0.96"/>
  <path d="M30 74c6 4 10 4 20 4s14 0 20-4c-3 5-10 8-20 8s-17-3-20-8z" fill="#c79a4b"/>
</svg>
